<svg id="svg10" xmlns="http://www.w3.org/2000/svg" viewBox="0 0 16 16"><defs><style>.cls-1{fill:none;}.cls-2{opacity:0.26;isolation:isolate;}.cls-3{fill:#0abf61;}</style></defs><title>画板 0</title><rect class="cls-1" width="16" height="16"/><g id="g8"><path id="rect4" class="cls-2" d="M2.8,14H13.19a.8.8,0,0,1,.8.8h0a.8.8,0,0,1-.8.8H2.8a.8.8,0,0,1-.8-.8H2A.8.8,0,0,1,2.8,14Z"/><path id="rect6" d="M2.8,14h6a.8.8,0,0,1,.8.8h0a.8.8,0,0,1-.8.8h-6a.8.8,0,0,1-.8-.8H2A.8.8,0,0,1,2.8,14Z"/></g><path class="cls-3" d="M10.56,1.7V3.24H9V1.7Zm0,1.54V4.6h1.37V3.24Zm1.73-1h-.63v.63h.63ZM11.93,4.6v1h1v-1Zm-.8,4A3.42,3.42,0,1,1,7.86,3.42h.31V1.7a5.13,5.13,0,1,0,4.28,8Z"/></svg>