<svg id="svg8" xmlns="http://www.w3.org/2000/svg" viewBox="0 0 232 128"><defs><style>.cls-1{fill:none;}.cls-2{fill:#0088ce;}</style></defs><title>画板 1</title><rect class="cls-1" width="232" height="128"/><path class="cls-2" d="M11.51,62.14a8.13,8.13,0,0,0,14.14,7.14l.18-.22,3.28,2.77-.18.21a12.44,12.44,0,1,1,0-16l.19.21-3.31,2.79-.19-.22a8,8,0,0,0-4.3-2.7,8.3,8.3,0,0,0-1.91-.22A8.12,8.12,0,0,0,11.51,62.14Zm51.15.27a5,5,0,0,1,1.15.13,4.8,4.8,0,0,1,2.59,1.64l.18.21,3.29-2.76-.18-.21a9,9,0,0,0-4.88-3.06,9.18,9.18,0,1,0,4.85,14.82l.18-.22L66.55,70.2l-.18.22a4.86,4.86,0,1,1-3.71-8Zm-30.13-6.6h4.31V51.5H32.53Zm0,20.68h4.31V58.15H32.53Zm98-20.68h4.31V51.5h-4.31Zm0,20.68h4.31V58.15h-4.31Zm-57.72,0h4.3v-25h-4.3Zm25-11.14a9.35,9.35,0,0,1,.21,2,10.56,10.56,0,0,1-.13,1.6H85.07a4.81,4.81,0,0,0,8.33,1.48l.18-.22L96.88,73l-.17.22a9.72,9.72,0,0,1-1.83,1.69,9.17,9.17,0,0,1-14.39-7.26v-.28a9,9,0,0,1,8.76-9.18,8.24,8.24,0,0,1,2.61.42,8.83,8.83,0,0,1,4.27,3.07A9.51,9.51,0,0,1,97.8,65.36Zm-4.17,0a4.51,4.51,0,0,0-8.43,0Zm-48.3-3.75V58.15H41V76.49h4.31V67.76c0-3.07,2.29-5.06,6-4.72V58.15A6.6,6.6,0,0,0,45.33,61.62ZM113.27,51.5H109v25h17.68V72.19H113.27Zm34,6.65h0A8.28,8.28,0,0,0,139,66.43V76.49h4.3V66.43a4,4,0,0,1,4-4h0a4,4,0,0,1,4,4V76.49h4.31V66.43A8.28,8.28,0,0,0,147.26,58.15Zm24.3,10.06a4,4,0,0,1-7.95,0V58.15h-4.3V68.21a8.28,8.28,0,0,0,16.56,0V58.15h-4.31Zm25.76-10.06h-5.4l-4.19,5.55-4.2-5.55h-5.39L185,67.27l-7,9.22h5.4l4.27-5.65L192,76.49h5.4l-7-9.22Zm27.7,11c0,4.22-3.35,7.36-8.15,7.36s-8.11-3.14-8.11-7.36a6.76,6.76,0,0,1,4.14-6.35,5.44,5.44,0,0,1-3.07-5c0-3.48,2.9-6.28,7-6.28S224,54.3,224,57.78a5.36,5.36,0,0,1-3.11,5A6.72,6.72,0,0,1,225,69.14Zm-8.15-7.56c2.42,0,4-1.55,4-3.55,0-2.28-1.69-3.73-4-3.73a3.68,3.68,0,0,0-4,3.73C212.87,60,214.45,61.58,216.87,61.58Zm5,7.32a5,5,0,0,0-10,0c0,2.94,2.11,4.77,5,4.77S221.91,71.84,221.91,68.9Z"/></svg>