<?xml version="1.0" encoding="UTF-8" standalone="no"?>
<svg
   xmlns:dc="http://purl.org/dc/elements/1.1/"
   xmlns:cc="http://creativecommons.org/ns#"
   xmlns:rdf="http://www.w3.org/1999/02/22-rdf-syntax-ns#"
   xmlns:svg="http://www.w3.org/2000/svg"
   xmlns="http://www.w3.org/2000/svg"
   xmlns:sodipodi="http://sodipodi.sourceforge.net/DTD/sodipodi-0.dtd"
   xmlns:inkscape="http://www.inkscape.org/namespaces/inkscape"
   id="svg8"
   viewBox="0 0 232 128"
   version="1.1"
   sodipodi:docname="fedora-logo-sprite.svg"
   inkscape:version="0.92.5 (2060ec1f9f, 2020-04-08)">
  <metadata
     id="metadata15">
    <rdf:RDF>
      <cc:Work
         rdf:about="">
        <dc:format>image/svg+xml</dc:format>
        <dc:type
           rdf:resource="http://purl.org/dc/dcmitype/StillImage" />
        <dc:title>画板 1</dc:title>
      </cc:Work>
    </rdf:RDF>
  </metadata>
  <sodipodi:namedview
     pagecolor="#ffffff"
     bordercolor="#666666"
     borderopacity="1"
     objecttolerance="10"
     gridtolerance="10"
     guidetolerance="10"
     inkscape:pageopacity="0"
     inkscape:pageshadow="2"
     inkscape:window-width="1848"
     inkscape:window-height="1016"
     id="namedview13"
     showgrid="false"
     inkscape:zoom="3.6875"
     inkscape:cx="114.07856"
     inkscape:cy="73.786426"
     inkscape:window-x="72"
     inkscape:window-y="27"
     inkscape:window-maximized="1"
     inkscape:current-layer="svg8" />
  <defs
     id="defs4">
    <style
       id="style2">.cls-1{fill:none;}.cls-2{fill:#0088ce;}</style>
  </defs>
  <title
     id="title6">画板 1</title>
  <rect
     class="cls-1"
     width="232"
     height="128"
     id="rect8" />
  <path
     class="cls-2"
     d="M 7.6525651,58.057009 C 5.220271,69.956764 17.893933,77.616521 24.450494,68.209407 l 0.213836,-0.312819 3.896549,3.938674 -0.213835,0.298601 C 19.475078,84.779067 2.2526296,77.267879 2.2526296,60.758627 c 0,-16.50925 17.2224484,-24.020438 26.0944144,-11.375234 l 0.225713,0.298601 -3.932187,3.967112 -0.225716,-0.312818 c -1.309296,-1.909676 -3.102402,-3.25729 -5.10828,-3.839143 -0.743665,-0.209124 -1.505114,-0.314102 -2.269027,-0.312819 -4.467464,-4.16e-4 -8.350643,3.670792 -9.3849819,8.872683 z m 60.7647859,0.383914 c 0.459833,-0.0019 0.918292,0.06014 1.366168,0.184849 1.211001,0.353872 2.291758,1.172971 3.076849,2.331922 l 0.213835,0.298601 3.908428,-3.924456 -0.213835,-0.298601 c -1.48203,-2.171319 -3.518821,-3.699984 -5.797304,-4.351027 -8.308792,-2.431949 -15.615389,7.009413 -12.955054,16.739285 2.660337,9.729872 13.216724,12.174238 18.716719,4.333338 l 0.213836,-0.31282 -3.90843,-3.924456 -0.213835,0.31282 c -2.725078,3.853207 -7.86996,3.022273 -9.64441,-1.557496 -1.774448,-4.579769 1.019239,-9.817165 5.237033,-9.817738 z M 32.623744,49.056355 h 5.120161 v -6.128408 h -5.120161 z m 0,29.404981 h 5.120161 V 52.383612 H 32.623744 Z M 149.04504,49.056355 h 5.12015 v -6.128408 h -5.12015 z m 0,29.404981 h 5.12015 V 52.383612 h -5.12015 z m -68.569769,0 h 5.10828 V 42.913729 h -5.10828 z M 110.17458,62.621323 c 0.16833,0.934444 0.25196,1.887894 0.24948,2.843808 -0.003,0.761941 -0.0548,1.522487 -0.15445,2.275047 H 95.039814 c 1.429009,5.157498 7.069946,6.357085 9.895806,2.104418 l 0.21384,-0.312819 3.9203,3.967113 -0.20196,0.31282 c -0.63554,0.909291 -1.36621,1.716927 -2.17397,2.403019 -7.10214,5.892604 -16.834477,0.01558 -17.094932,-10.323026 v -0.398134 c -0.119641,-7.035684 4.5293,-12.866882 10.406632,-13.053081 1.05366,-0.002 2.10066,0.199698 3.10061,0.5972 2.02206,0.804625 3.79143,2.327258 5.07265,4.365246 0.96686,1.55394 1.64344,3.338429 1.98391,5.232607 z m -4.95385,0 c -1.75182,-5.508779 -8.262783,-5.508779 -10.014603,0 z M 47.84167,57.289181 v -4.905569 h -5.1558 v 26.077724 h 5.12016 V 66.048113 c 0,-4.365246 2.720458,-7.194837 7.127835,-6.711389 v -6.953112 c -2.955879,-0.09022 -5.702776,1.817592 -7.104076,4.934006 z m 80.69897,-14.361234 h -5.07266 v 35.54761 h 21.00335 v -6.128408 h -15.93069 z m 40.39105,9.455665 v 0 c -5.42786,0.0078 -9.82453,5.276664 -9.82453,11.773368 v 14.304356 h 5.10828 V 64.15698 c 0,-3.141186 2.1275,-5.687618 4.75189,-5.687618 v 0 c 2.62441,0 4.75188,2.546432 4.75188,5.687618 v 14.304356 h 5.12018 V 64.15698 c 1.8e-4,-6.541323 -4.45463,-11.828669 -9.91959,-11.773368 z m 28.86773,14.304358 c -0.63228,6.736953 -8.81212,6.736953 -9.44438,0 V 52.383612 h -5.10827 V 66.68797 c 0,6.502256 4.4039,11.773361 9.8364,11.773361 5.4325,0 9.83641,-5.271105 9.83641,-11.773361 V 52.383612 h -5.12016 z m 30.60217,-14.304358 h -6.41506 l -4.97759,7.891568 -4.98949,-7.891568 h -6.40318 l 8.13762,12.967767 -8.3158,13.109957 h 6.41505 l 5.07263,-8.033759 5.14392,8.033759 h 6.41506 l -8.31581,-13.109957 z"
     id="path10"
     inkscape:connector-curvature="0"
     style="fill:#0088ce;stroke-width:1.29968572"
     sodipodi:nodetypes="cccccsccccccccccccccsccccscccccccccccccccccccccccccccccccccccccccccccccccccccscccccccccccccsccsccscccccccccssscccccccccccccccc" />
</svg>
