<?xml version="1.0" encoding="UTF-8" standalone="no"?>
<svg
   xmlns:dc="http://purl.org/dc/elements/1.1/"
   xmlns:cc="http://creativecommons.org/ns#"
   xmlns:rdf="http://www.w3.org/1999/02/22-rdf-syntax-ns#"
   xmlns:svg="http://www.w3.org/2000/svg"
   xmlns="http://www.w3.org/2000/svg"
   xmlns:sodipodi="http://sodipodi.sourceforge.net/DTD/sodipodi-0.dtd"
   xmlns:inkscape="http://www.inkscape.org/namespaces/inkscape"
   id="logo"
   viewBox="0 0 158 72"
   version="1.1"
   sodipodi:docname="fedora-logo-sprite.svg"
   inkscape:version="0.92.5 (2060ec1f9f, 2020-04-08)"
   inkscape:export-filename="/home/xzt/Documents/CircleLinux/svg-circlelogo/pixel/fedora-logo-sprite.png"
   inkscape:export-xdpi="209.33333"
   inkscape:export-ydpi="209.33333">
  <metadata
     id="metadata584">
    <rdf:RDF>
      <cc:Work
         rdf:about="">
        <dc:format>image/svg+xml</dc:format>
        <dc:type
           rdf:resource="http://purl.org/dc/dcmitype/StillImage" />
        <dc:title>画板 1</dc:title>
      </cc:Work>
    </rdf:RDF>
  </metadata>
  <sodipodi:namedview
     pagecolor="#ffffff"
     bordercolor="#666666"
     borderopacity="1"
     objecttolerance="10"
     gridtolerance="10"
     guidetolerance="10"
     inkscape:pageopacity="0"
     inkscape:pageshadow="2"
     inkscape:window-width="1848"
     inkscape:window-height="1016"
     id="namedview582"
     showgrid="false"
     inkscape:snap-text-baseline="false"
     inkscape:zoom="4.2068378"
     inkscape:cx="95.521536"
     inkscape:cy="3.0662061"
     inkscape:window-x="72"
     inkscape:window-y="27"
     inkscape:window-maximized="1"
     inkscape:current-layer="logo" />
  <defs
     id="defs573">
    <style
       id="style571">.cls-1{fill:none;}</style>
    <style
       id="style879">.cls-1{fill:none;}.cls-2{fill:#0abf61;}</style>
  </defs>
  <title
     id="title575">画板 1</title>
  <rect
     class="cls-1"
     width="158"
     height="72"
     id="rect577" />
  <path
     d="m 49.279651,36.861699 c 0.253503,7.96e-4 0.506093,0.02783 0.752964,0.08058 0.67045,0.14713 1.268781,0.493501 1.701497,0.984986 l 0.117355,0.134318 2.161099,-1.665525 -0.117355,-0.125362 c -0.821912,-0.917614 -1.947833,-1.565139 -3.207424,-1.844611 -0.459023,-0.116013 -0.932047,-0.179182 -1.408137,-0.188042 -7.102722,0.04107 -8.303925,9.329531 -1.408139,10.888582 0.463989,0.104027 0.940238,0.155158 1.417918,0.152226 1.769338,-0.004 3.446945,-0.721391 4.586223,-1.96102 l 0.136893,-0.125361 -2.161099,-1.656568 -0.117353,0.125361 c -1.508985,1.635965 -4.36253,1.283808 -5.344759,-0.659543 -0.98223,-1.94335 0.571302,-4.163278 2.909856,-4.157941 z M 29.477727,32.885933 h 2.826051 v -2.587831 h -2.826051 z m 0,12.446653 h 2.826051 V 34.300732 H 29.477727 Z M 93.851095,32.885933 h 2.826053 v -2.587831 h -2.826053 z m 0,12.446653 h 2.826053 V 34.300732 h -2.826053 z m -37.882793,0.0089 h 2.826052 V 30.298087 h -2.826052 z m 16.447822,-6.697911 c 0.08956,0.388684 0.135442,0.784743 0.136894,1.181984 -0.0034,0.320596 -0.02937,0.640653 -0.07822,0.958123 h -8.478159 c 0.09262,0.251772 0.224357,0.49002 0.391151,0.707402 1.007482,1.327463 2.999147,1.656141 4.44932,0.734261 0.239592,-0.152983 0.453689,-0.336971 0.635618,-0.54622 l 0.117355,-0.134315 2.170876,1.647615 -0.117355,0.134316 c -0.343694,0.387001 -0.745327,0.727646 -1.193003,1.01185 -3.928758,2.497267 -9.316026,0.0077 -9.456032,-4.369761 v -0.170135 c -0.0765,-2.967552 2.489566,-5.429582 5.730335,-5.498017 0.58157,-0.0027 1.159699,0.08189 1.711276,0.250722 1.118151,0.340007 2.096947,0.983335 2.806497,1.844614 0.548421,0.66564 0.932143,1.432557 1.124555,2.247561 z m -2.738045,0 c -0.911005,-2.41028 -4.633534,-2.41028 -5.544539,0 z M 37.887431,36.387083 v -2.086382 h -2.835829 v 11.031854 h 2.835829 v -5.247294 c 0,-1.853565 1.505925,-3.044505 3.911492,-2.847507 v -2.937053 c -1.627921,-0.03119 -3.138048,0.774311 -3.911492,2.086382 z m 44.64968,-6.089011 H 79.70128 v 15.043469 h 11.617129 v -2.596786 h -8.800861 z m 22.324819,4.002629 v 0 c -3.00273,0 -5.436945,2.229023 -5.436945,4.978661 v 6.053193 h 2.826025 v -6.053193 c 0.0266,-1.304373 1.18625,-2.350373 2.61092,-2.355013 v 0 c 1.44357,-9e-6 2.61533,1.068964 2.62071,2.390832 v 6.053192 h 2.82605 v -6.089011 c 0,-2.75314 -2.44017,-4.983614 -5.44676,-4.978661 z m 15.97846,6.053194 c 0,3.187775 -5.22182,3.187775 -5.22182,0 v -6.053194 h -2.83584 v 6.053194 c 0.12361,2.670008 2.52342,4.77633 5.44184,4.77633 2.91842,0 5.31823,-2.106322 5.44185,-4.77633 v -6.053194 h -2.82603 z m 16.92698,-6.053194 h -3.56925 l -2.73803,3.340001 -2.75761,-3.340001 h -3.53991 l 4.52758,5.489065 -4.57647,5.542789 h 3.53993 l 2.80648,-3.393726 2.80647,3.393726 h 3.53991 l -4.58624,-5.542789 z"
     id="path579"
     inkscape:connector-curvature="0"
     sodipodi:nodetypes="ccccccccccccccscccccccccccccccccccccccccccccccccccccccccccccccccccccsccccccccccccsccccccccccsscccscccsccccccccccccc"
     style="stroke-width:0.93575066" />
  <text
     xml:space="preserve"
     style="font-style:normal;font-variant:normal;font-weight:bold;font-stretch:normal;font-size:22.25217438px;line-height:1.25;font-family:sans-serif;-inkscape-font-specification:'sans-serif, Bold';font-variant-ligatures:normal;font-variant-caps:normal;font-variant-numeric:normal;font-feature-settings:normal;text-align:start;letter-spacing:0px;word-spacing:0px;writing-mode:lr-tb;text-anchor:start;fill:#000000;fill-opacity:1;stroke:none;stroke-width:0.55631518"
     x="134.10555"
     y="49.136784"
     id="text588"
     transform="scale(1.0713356,0.93341432)"><tspan
       sodipodi:role="line"
       id="tspan586"
       x="134.10555"
       y="49.136784"
       style="font-style:normal;font-variant:normal;font-weight:bold;font-stretch:normal;font-size:22.25217438px;font-family:sans-serif;-inkscape-font-specification:'sans-serif, Bold';font-variant-ligatures:normal;font-variant-caps:normal;font-variant-numeric:normal;font-feature-settings:normal;text-align:start;writing-mode:lr-tb;text-anchor:start;stroke-width:0.55631518">9</tspan></text>
  <g
     id="g909"
     transform="matrix(0.13766762,0,0,0.1442786,1.3309797,24.847925)">
    <rect
       id="rect885"
       height="170"
       width="170"
       class="cls-1"
       x="0"
       y="0"
       style="fill:none" />
    <rect
       id="rect887"
       height="22.23"
       width="22.23"
       y="10.89"
       x="99.82"
       class="cls-2"
       style="fill:#0abf61" />
    <rect
       id="rect889"
       height="19.76"
       width="19.76"
       y="33.119999"
       x="122.05"
       class="cls-2"
       style="fill:#0abf61" />
    <rect
       id="rect891"
       height="9.1700001"
       width="9.1700001"
       y="18.85"
       x="137.85001"
       class="cls-2"
       style="fill:#0abf61" />
    <rect
       id="rect893"
       height="14.82"
       width="14.82"
       y="52.889999"
       x="141.82001"
       class="cls-2"
       style="fill:#0abf61" />
    <path
       id="path895"
       d="M 92,134.18 A 49.43,49.43 0 1 1 83,35.74 c 1.52,-0.14 3,-0.19 4.52,-0.19 V 10.89 A 74.1,74.1 0 1 0 151.69,122 l -21.4,-12.35 A 49.32,49.32 0 0 1 92,134.18 Z"
       class="cls-2"
       inkscape:connector-curvature="0"
       style="fill:#0abf61" />
  </g>
</svg>
