<?xml version="1.0" encoding="UTF-8" standalone="no"?>
<svg
   xmlns:dc="http://purl.org/dc/elements/1.1/"
   xmlns:cc="http://creativecommons.org/ns#"
   xmlns:rdf="http://www.w3.org/1999/02/22-rdf-syntax-ns#"
   xmlns:svg="http://www.w3.org/2000/svg"
   xmlns="http://www.w3.org/2000/svg"
   xmlns:sodipodi="http://sodipodi.sourceforge.net/DTD/sodipodi-0.dtd"
   xmlns:inkscape="http://www.inkscape.org/namespaces/inkscape"
   id="logo"
   viewBox="0 0 272 88"
   version="1.1"
   sodipodi:docname="fedora_logo_darkbackground_nonum.svg"
   inkscape:version="0.92.5 (2060ec1f9f, 2020-04-08)"
   width="272"
   height="88">
  <metadata
     id="metadata15">
    <rdf:RDF>
      <cc:Work
         rdf:about="">
        <dc:format>image/svg+xml</dc:format>
        <dc:type
           rdf:resource="http://purl.org/dc/dcmitype/StillImage" />
        <dc:title>画板 1</dc:title>
      </cc:Work>
    </rdf:RDF>
  </metadata>
  <sodipodi:namedview
     pagecolor="#ffffff"
     bordercolor="#666666"
     borderopacity="1"
     objecttolerance="10"
     gridtolerance="10"
     guidetolerance="10"
     inkscape:pageopacity="0"
     inkscape:pageshadow="2"
     inkscape:window-width="1848"
     inkscape:window-height="1016"
     id="namedview13"
     showgrid="false"
     inkscape:zoom="4.171035"
     inkscape:cx="166.99792"
     inkscape:cy="39.814417"
     inkscape:window-x="72"
     inkscape:window-y="27"
     inkscape:window-maximized="1"
     inkscape:current-layer="logo" />
  <defs
     id="defs4">
    <style
       id="style2">.cls-1{fill:none;}.cls-2{fill:#fff;}</style>
  </defs>
  <title
     id="title6">画板 1</title>
  <rect
     class="cls-1"
     width="158"
     height="72"
     id="rect8"
     x="0"
     y="16"
     style="fill:none" />
  <path
     class="cls-2"
     d="m 93.30211,41.515271 c 0.458529,0.0023 0.915378,0.07757 1.361894,0.224617 1.212619,0.410079 2.294828,1.375477 3.077462,2.745335 l 0.212243,0.374363 3.908741,-4.64211 -0.21223,-0.349407 C 100.16364,37.310516 98.1272,35.505747 95.849004,34.726809 95.018772,34.403457 94.163207,34.2274 93.30211,34.202699 80.455549,34.31718 78.282948,60.205762 90.755254,64.551116 c 0.839197,0.289943 1.700584,0.432452 2.564559,0.42428 3.200176,-0.01126 6.234437,-2.010645 8.295047,-5.465711 l 0.24759,-0.349406 -3.908741,-4.617152 -0.212243,0.349408 c -2.729275,4.559728 -7.890435,3.578199 -9.666977,-1.83826 -1.776541,-5.416461 1.033304,-11.603797 5.263016,-11.588921 z M 57.486703,30.434104 h 5.111434 v -7.21274 h -5.111434 z m 0,34.691037 h 5.111434 V 34.377403 H 57.486703 Z M 173.91778,30.434104 h 5.11143 v -7.21274 h -5.11143 z m 0,34.691037 h 5.11143 V 34.377403 h -5.11143 z m -68.518,0.02496 h 5.11144 V 23.221365 h -5.11144 z m 29.74891,-18.66827 c 0.162,1.083334 0.24495,2.18722 0.24759,3.294401 -0.004,0.893555 -0.0531,1.785613 -0.14148,2.670461 h -15.33429 c 0.16752,0.701735 0.40578,1.365768 0.70746,1.971649 1.8222,3.699876 5.4245,4.615965 8.04742,2.046521 0.43332,-0.426395 0.82059,-0.939201 1.14962,-1.522413 l 0.21224,-0.374364 3.92642,4.592195 -0.21223,0.374364 c -0.62163,1.078645 -1.34807,2.028079 -2.15778,2.820206 -7.10587,6.960331 -16.84974,0.02146 -17.10296,-12.179298 v -0.474195 c -0.13836,-8.271096 4.50284,-15.133214 10.36437,-15.323954 1.05187,-0.0078 2.09753,0.228262 3.09516,0.698811 2.02237,0.947655 3.7927,2.740731 5.07606,5.141262 0.99191,1.855258 1.68596,3.992797 2.03397,6.264353 z m -4.95227,0 c -1.64771,-6.71788 -8.38059,-6.71788 -10.02832,0 z M 72.697205,40.192518 V 34.377403 H 67.56808 v 30.747738 h 5.129125 V 50.499999 c 0,-5.166218 2.723738,-8.485578 7.07465,-7.936511 v -8.186085 c -2.944392,-0.08693 -5.675741,2.158142 -7.07465,5.815115 z M 153.45436,23.221364 h -5.12914 v 41.928735 h 21.01171 V 57.9124 h -15.91796 z m 40.37855,11.156039 v 0 c -5.43103,0 -9.83376,6.212683 -9.83376,13.876415 v 16.871323 h 5.11143 V 48.253818 c 0.0481,-3.635519 2.14554,-6.550909 4.72233,-6.563844 v 0 c 2.61096,-2.6e-5 4.73027,2.979396 4.74002,6.663675 v 16.871323 h 5.11143 V 48.253818 c 0,-7.67349 -4.41349,-13.890216 -9.85145,-13.876415 z m 28.89995,16.871324 c 0,8.884893 -9.44465,8.884893 -9.44465,0 V 34.377403 h -5.12913 v 16.871324 c 0.22362,7.441785 4.56414,13.312481 9.84261,13.312481 5.2785,0 9.619,-5.870696 9.84263,-13.312481 V 34.377403 h -5.11146 z m 30.61557,-16.871324 h -6.45563 l -4.95225,9.309177 -4.98763,-9.309177 h -6.40257 l 8.1889,15.298996 -8.27733,15.448742 h 6.40256 l 5.07607,-9.458922 5.07605,9.458922 h 6.40257 l -8.29503,-15.448742 z"
     id="path10"
     inkscape:connector-curvature="0"
     style="fill:#ffffff;stroke-width:1"
     sodipodi:nodetypes="ccccccccccccccscccccccccccccccccccccccccccccccccccccccccccccccccccccsccccccccccccsccccccccccsscccscccsccccccccccccc" />
  <g
     id="g909"
     transform="matrix(0.2935437,0,0,0.29414041,26.728599,15.590046)"
     style="stroke-width:0.47962642">
    <rect
       id="rect885"
       height="170"
       width="170"
       class="cls-1"
       x="-88.061691"
       y="7.8105874"
       style="fill:none;stroke-width:0.47962642" />
    <rect
       id="rect887"
       height="22.23"
       width="22.23"
       y="18.700588"
       x="11.75831"
       class="cls-2"
       style="fill:#0abf61;stroke-width:0.47962642" />
    <rect
       id="rect889"
       height="19.76"
       width="19.76"
       y="40.930588"
       x="33.988335"
       class="cls-2"
       style="fill:#0abf61;stroke-width:0.47962642" />
    <rect
       id="rect891"
       height="9.1700001"
       width="9.1700001"
       y="26.660587"
       x="49.78833"
       class="cls-2"
       style="fill:#0abf61;stroke-width:0.47962642" />
    <rect
       id="rect893"
       height="14.82"
       width="14.82"
       y="60.700588"
       x="53.758301"
       class="cls-2"
       style="fill:#0abf61;stroke-width:0.47962642" />
    <path
       id="path895"
       d="M 3.9383006,141.99059 A 49.43,49.43 0 1 1 -5.0616998,43.550588 c 1.52,-0.14 3,-0.19 4.52000003,-0.19 v -24.66 A 74.1,74.1 0 1 0 63.628295,129.81059 l -21.399997,-12.35 a 49.32,49.32 0 0 1 -38.2899974,24.53 z"
       class="cls-2"
       inkscape:connector-curvature="0"
       style="fill:#0abf61;stroke-width:0.47962642" />
  </g>
</svg>
