<svg id="logo" xmlns="http://www.w3.org/2000/svg" viewBox="0 0 158 72"><defs><style>.cls-1{fill:none;}</style></defs><title>画板 1</title><rect class="cls-1" width="158" height="72"/><path d="M8.78,34.75a5.47,5.47,0,0,0,9.5,4.8l.12-.15,2.21,1.86-.12.14a8.32,8.32,0,0,1-6.38,3,8.61,8.61,0,0,1-2-.23,8.37,8.37,0,0,1,1.95-16.5,8.08,8.08,0,0,1,2,.23,8.32,8.32,0,0,1,4.44,2.75l.12.15L18.4,32.67l-.13-.14a5.4,5.4,0,0,0-2.89-1.82,5.59,5.59,0,0,0-1.28-.15A5.46,5.46,0,0,0,8.78,34.75Zm34.38.18a3.44,3.44,0,0,1,.77.09,3.19,3.19,0,0,1,1.74,1.1l.12.15L48,34.41l-.12-.14a6.1,6.1,0,0,0-3.28-2.06A5.86,5.86,0,0,0,43.16,32a6.17,6.17,0,0,0-1.44,12.16,5.93,5.93,0,0,0,1.45.17,6.15,6.15,0,0,0,4.69-2.19L48,42l-2.21-1.85-.12.14a3.27,3.27,0,1,1-2.49-5.38ZM22.91,30.49H25.8V27.6H22.91Zm0,13.9H25.8V32.07H22.91Zm65.83-13.9h2.89V27.6H88.74Zm0,13.9h2.89V32.07H88.74ZM50,44.4h2.89V27.6H50Zm16.82-7.48a6.5,6.5,0,0,1,.14,1.32,8.21,8.21,0,0,1-.08,1.07H58.21a3.09,3.09,0,0,0,.4.79,3.27,3.27,0,0,0,4.55.82,3.09,3.09,0,0,0,.65-.61l.12-.15L66.15,42l-.12.15a5.92,5.92,0,0,1-1.22,1.13,6.16,6.16,0,0,1-9.67-4.88v-.19A6,6,0,0,1,61,32.07a5.43,5.43,0,0,1,1.75.28,5.94,5.94,0,0,1,2.87,2.06A6.42,6.42,0,0,1,66.77,36.92Zm-2.8,0a3,3,0,0,0-5.67,0ZM31.51,34.4V32.07h-2.9V44.39h2.9V38.53c0-2.07,1.54-3.4,4-3.18V32.07A4.44,4.44,0,0,0,31.51,34.4Zm45.66-6.8h-2.9V44.4H86.15V41.5h-9ZM100,32.07h0a5.56,5.56,0,0,0-5.56,5.56v6.76h2.89V37.63A2.68,2.68,0,0,1,100,35h0a2.68,2.68,0,0,1,2.68,2.67v6.76h2.89V37.63A5.56,5.56,0,0,0,100,32.07Zm16.34,6.76a2.67,2.67,0,0,1-5.34,0V32.07h-2.9v6.76a5.57,5.57,0,0,0,11.13,0V32.07h-2.89Zm17.31-6.76H130L127.2,35.8l-2.82-3.73h-3.62l4.63,6.13-4.68,6.19h3.62l2.87-3.79,2.87,3.79h3.62L129,38.2Zm18.61,7.39c0,2.83-2.25,4.94-5.47,4.94s-5.46-2.11-5.46-4.94a4.53,4.53,0,0,1,2.79-4.27,3.66,3.66,0,0,1-2.07-3.37c0-2.34,1.95-4.22,4.74-4.22s4.75,1.88,4.75,4.22a3.61,3.61,0,0,1-2.09,3.37A4.51,4.51,0,0,1,152.26,39.46Zm-5.47-5.08a2.46,2.46,0,1,0-2.7-2.39A2.48,2.48,0,0,0,146.79,34.38Zm3.38,4.91a3.38,3.38,0,0,0-6.75,0,3.38,3.38,0,0,0,6.75,0Z"/></svg>