<?xml version="1.0" encoding="UTF-8" standalone="no"?>
<svg
   xmlns:dc="http://purl.org/dc/elements/1.1/"
   xmlns:cc="http://creativecommons.org/ns#"
   xmlns:rdf="http://www.w3.org/1999/02/22-rdf-syntax-ns#"
   xmlns:svg="http://www.w3.org/2000/svg"
   xmlns="http://www.w3.org/2000/svg"
   xmlns:sodipodi="http://sodipodi.sourceforge.net/DTD/sodipodi-0.dtd"
   xmlns:inkscape="http://www.inkscape.org/namespaces/inkscape"
   id="logo"
   viewBox="0 0 158 72"
   version="1.1"
   sodipodi:docname="fedora_logo.svg"
   inkscape:version="0.92.5 (2060ec1f9f, 2020-04-08)">
  <metadata
     id="metadata584">
    <rdf:RDF>
      <cc:Work
         rdf:about="">
        <dc:format>image/svg+xml</dc:format>
        <dc:type
           rdf:resource="http://purl.org/dc/dcmitype/StillImage" />
        <dc:title>画板 1</dc:title>
      </cc:Work>
    </rdf:RDF>
  </metadata>
  <sodipodi:namedview
     pagecolor="#ffffff"
     bordercolor="#666666"
     borderopacity="1"
     objecttolerance="10"
     gridtolerance="10"
     guidetolerance="10"
     inkscape:pageopacity="0"
     inkscape:pageshadow="2"
     inkscape:window-width="1848"
     inkscape:window-height="1016"
     id="namedview582"
     showgrid="false"
     inkscape:snap-text-baseline="false"
     inkscape:zoom="5.9493671"
     inkscape:cx="97.036538"
     inkscape:cy="45.991749"
     inkscape:window-x="72"
     inkscape:window-y="27"
     inkscape:window-maximized="1"
     inkscape:current-layer="logo" />
  <defs
     id="defs573">
    <style
       id="style571">.cls-1{fill:none;}</style>
  </defs>
  <title
     id="title575">画板 1</title>
  <rect
     class="cls-1"
     width="158"
     height="72"
     id="rect577" />
  <path
     d="m 8.78,34.75 c -1.3398535,5.605795 5.782135,9.204273 9.5,4.8 l 0.12,-0.15 2.21,1.86 -0.12,0.14 c -1.576935,1.896148 -3.913814,2.994994 -6.38,3 -0.673367,0.0018 -1.344621,-0.07539 -2,-0.23 -9.5886619,-2.346532 -7.9214979,-16.453305 1.95,-16.5 0.673648,-0.007 1.345529,0.07026 2,0.23 1.736801,0.416351 3.293526,1.380539 4.44,2.75 l 0.12,0.15 -2.22,1.87 -0.13,-0.14 c -0.741062,-0.903352 -1.755135,-1.541972 -2.89,-1.82 -0.419457,-0.09918 -0.848977,-0.149515 -1.28,-0.15 -2.529897,-0.0045 -4.7315471,1.729487 -5.32,4.19 z m 34.38,0.18 c 0.259238,8.9e-4 0.517544,0.03108 0.77,0.09 0.685621,0.16431 1.297494,0.551126 1.74,1.1 L 45.79,36.27 48,34.41 47.88,34.27 C 47.03949,33.24524 45.888092,32.522105 44.6,32.21 44.13059,32.08044 43.646861,32.009897 43.16,32 c -7.26344,0.04587 -8.491826,10.418904 -1.44,12.16 0.474486,0.116174 0.96151,0.173274 1.45,0.17 1.809374,-0.0045 3.524942,-0.805625 4.69,-2.19 L 48,42 45.79,40.15 45.67,40.29 C 44.126869,42.116992 41.208754,41.723713 40.2043,39.553447 39.199846,37.38318 40.788532,34.904039 43.18,34.91 Z M 22.91,30.49 H 25.8 V 27.6 h -2.89 z m 0,13.9 H 25.8 V 32.07 h -2.89 z m 65.83,-13.9 h 2.89 V 27.6 h -2.89 z m 0,13.9 h 2.89 V 32.07 H 88.74 Z M 50,44.4 h 2.89 V 27.6 H 50 Z m 16.82,-7.48 c 0.09159,0.43407 0.138501,0.876375 0.14,1.32 -0.0033,0.35803 -0.03003,0.715459 -0.08,1.07 h -8.67 c 0.09472,0.281171 0.229431,0.547236 0.4,0.79 1.03028,1.482466 3.06701,1.849524 4.55,0.82 0.245011,-0.170848 0.463955,-0.376319 0.65,-0.61 l 0.12,-0.15 2.22,1.84 -0.12,0.15 c -0.351475,0.432191 -0.762193,0.81261 -1.22,1.13 -4.017656,2.788864 -9.526825,0.0086 -9.67,-4.88 v -0.19 c -0.07823,-3.314061 2.545897,-6.063574 5.86,-6.14 0.594731,-0.0031 1.185937,0.09146 1.75,0.28 1.143448,0.379706 2.144394,1.098155 2.87,2.06 0.560829,0.743364 0.953235,1.599833 1.15,2.51 z m -2.8,0 c -0.93162,-2.691719 -4.73838,-2.691719 -5.67,0 z M 31.51,34.4 v -2.33 h -2.9 v 12.32 h 2.9 v -5.86 c 0,-2.07 1.54,-3.4 4,-3.18 v -3.28 c -1.664756,-0.03483 -3.209057,0.864724 -4,2.33 z m 45.66,-6.8 h -2.9 v 16.8 h 11.88 v -2.9 h -9 z M 100,32.07 v 0 c -3.070703,0 -5.56,2.489297 -5.56,5.56 v 6.76 h 2.89 V 37.63 C 97.357172,36.173321 98.543077,35.005183 100,35 v 0 c 1.47623,-1e-5 2.67449,1.193784 2.68,2.67 v 6.76 h 2.89 v -6.8 c 0,-3.074613 -2.49539,-5.56553 -5.57,-5.56 z m 16.34,6.76 c 0,3.559998 -5.34,3.559998 -5.34,0 v -6.76 h -2.9 v 6.76 c 0.12643,2.981774 2.58055,5.334043 5.565,5.334043 2.98445,0 5.43857,-2.352269 5.565,-5.334043 v -6.76 h -2.89 z m 17.31,-6.76 H 130 l -2.8,3.73 -2.82,-3.73 h -3.62 l 4.63,6.13 -4.68,6.19 h 3.62 l 2.87,-3.79 2.87,3.79 h 3.62 L 129,38.2 Z m 17.89416,10.666042 c -95.165969,18.479236 -47.58298,9.239618 0,0 z"
     id="path579"
     inkscape:connector-curvature="0"
     sodipodi:nodetypes="ccccccccccccccccccccccccccccccscccccccccccccccccccccccccccccccccccccccccccccccccccccsccccccccccccsccccccccccsscccscccsccccccccccccccc" />
  <text
     xml:space="preserve"
     style="font-style:normal;font-weight:bold;font-size:22.58133421px;line-height:1.25;font-family:sans-serif;letter-spacing:0px;word-spacing:0px;fill:#000000;fill-opacity:1;stroke:none;stroke-width:0.56454438;-inkscape-font-specification:'sans-serif, Bold';font-stretch:normal;font-variant:normal;text-anchor:start;text-align:start;writing-mode:lr;font-variant-ligatures:normal;font-variant-caps:normal;font-variant-numeric:normal;font-feature-settings:normal;"
     x="133.06902"
     y="47.407574"
     id="text588"
     transform="scale(1.0557191,0.94722168)"><tspan
       sodipodi:role="line"
       id="tspan586"
       x="133.06902"
       y="47.407574"
       style="stroke-width:0.56454438;-inkscape-font-specification:'sans-serif, Bold';font-family:sans-serif;font-weight:bold;font-style:normal;font-stretch:normal;font-variant:normal;font-size:22.58133421px;text-anchor:start;text-align:start;writing-mode:lr;font-variant-ligatures:normal;font-variant-caps:normal;font-variant-numeric:normal;font-feature-settings:normal;">9</tspan></text>
</svg>
