<svg id="svg38" xmlns="http://www.w3.org/2000/svg" xmlns:xlink="http://www.w3.org/1999/xlink" viewBox="0 0 128 128"><defs><style>.cls-1{fill:none;}.cls-2{fill:url(#未命名的渐变);}.cls-3{fill:#fff;}.cls-4{fill:#e1dedb;}.cls-5{fill:#3584e4;}.cls-6{fill:#0abf61;}</style><linearGradient id="未命名的渐变" x1="3049.03" y1="-237.6" x2="3497.03" y2="-237.6" gradientTransform="matrix(0.23, 0, 0, -0.33, -695.8, -12.16)" gradientUnits="userSpaceOnUse"><stop offset="0" stop-color="#acabae"/><stop offset="0.04" stop-color="#f7f7f7"/><stop offset="0.08" stop-color="#deddda"/><stop offset="0.92" stop-color="#b0afad"/><stop offset="0.96" stop-color="#c0bfbc"/><stop offset="1" stop-color="#77767b"/></linearGradient></defs><title>画板 1</title><rect class="cls-1" width="128" height="128"/><g id="g36"><rect id="rect18" class="cls-2" x="12" y="16" width="104" height="100" rx="8"/><rect id="rect20" class="cls-3" x="12" y="12" width="104" height="100" rx="8"/><g id="g26"><path id="rect22" class="cls-4" d="M28,88h72a4,4,0,0,1,4,4h0a4,4,0,0,1-4,4H28a4,4,0,0,1-4-4h0A4,4,0,0,1,28,88Z"/><path id="rect24" class="cls-5" d="M28,88H68.12a4,4,0,0,1,4,4h0a4,4,0,0,1-4,4H28a4,4,0,0,1-4-4h0A4,4,0,0,1,28,88Z"/></g></g><path class="cls-6" d="M75.79,28.68v6.47H69.33V28.68Zm0,6.47v5.74h5.75V35.15ZM83.05,31H80.38v2.66h2.67Zm-1.51,9.89V45.2h4.31V40.89ZM78.16,57.45A14.37,14.37,0,1,1,64.43,35.91c.45,0,.88-.06,1.32-.06V28.68a21.55,21.55,0,1,0,18,33.44Z"/></svg>